<?xml version="1.0" encoding="UTF-8" standalone="no"?>
<svg
   xmlns:dc="http://purl.org/dc/elements/1.1/"
   xmlns:cc="http://creativecommons.org/ns#"
   xmlns:rdf="http://www.w3.org/1999/02/22-rdf-syntax-ns#"
   xmlns:svg="http://www.w3.org/2000/svg"
   xmlns="http://www.w3.org/2000/svg"
   xmlns:sodipodi="http://sodipodi.sourceforge.net/DTD/sodipodi-0.dtd"
   xmlns:inkscape="http://www.inkscape.org/namespaces/inkscape"
   width="29"
   height="30"
   viewBox="0 0 29 30"
   fill="none"
   version="1.1"
   id="svg1294"
   sodipodi:docname="logo-small.svg"
   inkscape:version="1.0.1 (3bc2e813f5, 2020-09-07)">
  <metadata
     id="metadata1300">
    <rdf:RDF>
      <cc:Work
         rdf:about="">
        <dc:format>image/svg+xml</dc:format>
        <dc:type
           rdf:resource="http://purl.org/dc/dcmitype/StillImage" />
        <dc:title></dc:title>
      </cc:Work>
    </rdf:RDF>
  </metadata>
  <defs
     id="defs1298" />
  <sodipodi:namedview
     pagecolor="#ffffff"
     bordercolor="#666666"
     borderopacity="1"
     objecttolerance="10"
     gridtolerance="10"
     guidetolerance="10"
     inkscape:pageopacity="0"
     inkscape:pageshadow="2"
     inkscape:window-width="1920"
     inkscape:window-height="1017"
     id="namedview1296"
     showgrid="false"
     inkscape:zoom="20.034692"
     inkscape:cx="20.696482"
     inkscape:cy="15.823753"
     inkscape:window-x="-8"
     inkscape:window-y="-8"
     inkscape:window-maximized="1"
     inkscape:current-layer="g2708" />
  <g
     inkscape:groupmode="layer"
     id="layer1"
     inkscape:label="back"
     style="opacity:0.54166667" />
  <g
     inkscape:groupmode="layer"
     id="layer2"
     inkscape:label="front"
     style="opacity:1;mix-blend-mode:normal" />
  <g
     id="g2708">
    <g
       id="svg_78"
       transform="matrix(1.0845626,0,0,1.0845626,-15.964005,-12.828147)"
       style="opacity:0.54166667">
      <g
         transform="matrix(0.0525365,0,0,0.0525365,15.7107,18.9447)"
         id="svg_44">
        <path
           id="svg_45"
           fill="#afb9d2"
           d="m 138.09548,383.52291 h -17.655 c -4.875,0 -8.828,-3.953 -8.828,-8.828 v -17.655 h 35.31 v 17.655 c 0.001,4.875 -3.952,8.828 -8.827,8.828 z" />
        <path
           id="svg_46"
           fill="#afb9d2"
           d="m 455.88848,383.52291 h -17.655 c -4.875,0 -8.828,-3.953 -8.828,-8.828 v -17.655 h 35.31 v 17.655 c 10e-4,4.875 -3.952,8.828 -8.827,8.828 z" />
      </g>
      <path
         id="svg_47"
         fill="#e4eaf6"
         d="M 39.66151,38.16615 H 22.03825 c -0.51228,0 -0.92753,-0.41525 -0.92753,-0.92753 V 13.12253 c 0,-0.51228 0.41525,-0.92753 0.92753,-0.92753 h 17.62326 c 0.51228,0 0.92753,0.41525 0.92753,0.92753 v 24.11609 c 0,0.51228 -0.41525,0.92753 -0.92753,0.92753 z" />
      <path
         id="svg_48"
         fill="#d7deed"
         d="m 21.11072,13.12253 v 4.63771 H 40.5891 V 13.12253 C 40.58905,12.61025 40.17375,12.195 39.66152,12.195 H 22.03826 c -0.51223,0 -0.92753,0.41525 -0.92753,0.92753 z" />
      <path
         id="svg_49"
         fill="#afb9d2"
         d="m 28.99482,12.19499 v 2.78265 c 0,1.02451 0.83055,1.85506 1.85506,1.85506 1.02451,0 1.85506,-0.83055 1.85506,-1.85506 v -2.78265 h -3.71013 z" />
      <circle
         transform="matrix(0.0525365,0,0,0.0525365,15.7107,18.9447)"
         id="svg_50"
         fill="#c7cfe2"
         r="132.414"
         cy="136.35091"
         cx="288.16446" />
      <circle
         transform="matrix(0.0525365,0,0,0.0525365,15.7107,18.9447)"
         id="svg_51"
         fill="#707487"
         r="17.655001"
         cy="-75.511093"
         cx="288.16446" />
      <path
         id="svg_52"
         fill="#ffffff"
         d="m 34.56006,15.90517 c -0.25612,0 -0.46379,-0.20768 -0.46379,-0.46379 v -0.92753 c 0,-0.25612 0.20768,-0.46379 0.46379,-0.46379 0.25611,0 0.46379,0.20768 0.46379,0.46379 v 0.92753 c -5e-5,0.25612 -0.20768,0.46379 -0.46379,0.46379 z" />
      <path
         id="svg_53"
         fill="#fff08c"
         d="m 36.41512,15.90517 c -0.25612,0 -0.46379,-0.20768 -0.46379,-0.46379 v -0.92753 c 0,-0.25612 0.20768,-0.46379 0.46379,-0.46379 0.25611,0 0.46379,0.20768 0.46379,0.46379 v 0.92753 c 0,0.25612 -0.20768,0.46379 -0.46379,0.46379 z" />
      <path
         id="svg_54"
         fill="#e4eaf6"
         d="m 38.27019,15.90517 c -0.25612,0 -0.46379,-0.20768 -0.46379,-0.46379 v -0.92753 c 0,-0.25612 0.20768,-0.46379 0.46379,-0.46379 0.25612,0 0.46379,0.20768 0.46379,0.46379 v 0.92753 c 0,0.25612 -0.20768,0.46379 -0.46379,0.46379 z" />
      <circle
         transform="matrix(0.0525365,0,0,0.0525365,15.7107,18.9447)"
         id="svg_55"
         fill="#00c8f0"
         r="88.276001"
         cy="136.35091"
         cx="288.16446" />
      <path
         id="svg_56"
         fill="#00afe1"
         d="m 30.84988,22.86169 c 2.32427,0 4.24348,1.71159 4.57997,3.94202 0.03431,-0.22748 0.05774,-0.45859 0.05774,-0.69564 0,-2.56136 -2.07635,-4.63771 -4.63771,-4.63771 -2.56136,0 -4.63771,2.07635 -4.63771,4.63771 0,0.23704 0.02343,0.46815 0.05774,0.69564 0.3365,-2.23038 2.25571,-3.94202 4.57997,-3.94202 z" />
      <path
         id="svg_57"
         fill="#d7deed"
         d="m 34.56006,33.52844 h 4.63771 c 0.25612,0 0.46379,0.20768 0.46379,0.46379 v 2.78265 c 0,0.25612 -0.20768,0.46379 -0.46379,0.46379 h -4.63771 c -0.25612,0 -0.46379,-0.20768 -0.46379,-0.46379 v -2.78265 c 0,-0.25612 0.20768,-0.46379 0.46379,-0.46379 z" />
      <path
         id="svg_58"
         fill="#c7cfe2"
         d="m 27.1397,16.83271 h -4.63771 c -0.25612,0 -0.46379,-0.20768 -0.46379,-0.46379 v -2.7826 c 0,-0.25612 0.20768,-0.46379 0.46379,-0.46379 h 4.63771 c 0.25612,0 0.46379,0.20768 0.46379,0.46379 v 2.78265 c 0,0.25606 -0.20768,0.46374 -0.46379,0.46374 z" />
      <path
         id="svg_59"
         fill="#afb9d2"
         d="m 25.74843,15.90517 h -1.85506 c -0.25612,0 -0.46379,0.20768 -0.46379,0.46379 v 0.46379 h 2.78265 v -0.46379 c -5e-5,-0.25617 -0.20768,-0.46379 -0.46379,-0.46379 z" />
      <path
         id="svg_60"
         fill="#00ebff"
         d="m 33.16894,27.91612 c 0.1171,0 0.23416,0.04392 0.32452,0.13244 0.18293,0.17915 0.18614,0.47283 0.0068,0.65581 -0.30755,0.31406 -0.66417,0.56866 -1.06024,0.75658 -0.23032,0.11027 -0.50792,0.01109 -0.61772,-0.22013 -0.10985,-0.23142 -0.0113,-0.50792 0.22013,-0.61772 0.29688,-0.14085 0.56429,-0.33198 0.7953,-0.56771 0.09073,-0.09267 0.21104,-0.13927 0.33124,-0.13927 z" />
      <path
         id="svg_61"
         fill="#00dcff"
         d="m 28.06634,27.31668 c 0.1574,0 0.31065,0.07996 0.39765,0.22438 0.43432,0.72122 1.15896,1.20293 1.98803,1.32156 0.25365,0.03625 0.4298,0.27109 0.39334,0.52468 -0.03625,0.25365 -0.27356,0.42912 -0.52468,0.39334 -1.10621,-0.15808 -2.07246,-0.80008 -2.65104,-1.76087 -0.13223,-0.21944 -0.06142,-0.50451 0.15787,-0.63653 0.07486,-0.04529 0.15729,-0.06656 0.23883,-0.06656 z" />
      <path
         id="svg_62"
         fill="#959cb3"
         d="m 30.84988,20.54288 c -3.07359,0 -5.56524,2.49165 -5.56524,5.56524 0,3.07359 2.49165,5.56524 5.56524,5.56524 3.07359,0 5.56524,-2.49165 5.56524,-5.56524 0,-3.07359 -2.49165,-5.56524 -5.56524,-5.56524 z m 0,10.2029 c -2.56136,0 -4.63771,-2.07635 -4.63771,-4.63771 0,-2.56136 2.07635,-4.63771 4.63771,-4.63771 2.08523,0 3.84877,1.3763 4.43245,3.26992 -0.41336,0.09357 -0.72227,0.46237 -0.72227,0.904 v 0.92753 c 0,0.44162 0.30891,0.81043 0.72227,0.904 -0.58368,1.89368 -2.34723,3.26998 -4.43245,3.26998 z" />
      <g
         transform="matrix(0.0525365,0,0,0.0525365,15.7107,18.9447)"
         id="svg_63" />
      <g
         transform="matrix(0.0525365,0,0,0.0525365,15.7107,18.9447)"
         id="svg_64" />
      <g
         transform="matrix(0.0525365,0,0,0.0525365,15.7107,18.9447)"
         id="svg_65" />
      <g
         transform="matrix(0.0525365,0,0,0.0525365,15.7107,18.9447)"
         id="svg_66" />
      <g
         transform="matrix(0.0525365,0,0,0.0525365,15.7107,18.9447)"
         id="svg_67" />
      <g
         transform="matrix(0.0525365,0,0,0.0525365,15.7107,18.9447)"
         id="svg_68" />
      <g
         transform="matrix(0.0525365,0,0,0.0525365,15.7107,18.9447)"
         id="svg_69" />
      <g
         transform="matrix(0.0525365,0,0,0.0525365,15.7107,18.9447)"
         id="svg_70" />
      <g
         transform="matrix(0.0525365,0,0,0.0525365,15.7107,18.9447)"
         id="svg_71" />
      <g
         transform="matrix(0.0525365,0,0,0.0525365,15.7107,18.9447)"
         id="svg_72" />
      <g
         transform="matrix(0.0525365,0,0,0.0525365,15.7107,18.9447)"
         id="svg_73" />
      <g
         transform="matrix(0.0525365,0,0,0.0525365,15.7107,18.9447)"
         id="svg_74" />
      <g
         transform="matrix(0.0525365,0,0,0.0525365,15.7107,18.9447)"
         id="svg_75" />
      <g
         transform="matrix(0.0525365,0,0,0.0525365,15.7107,18.9447)"
         id="svg_76" />
      <g
         transform="matrix(0.0525365,0,0,0.0525365,15.7107,18.9447)"
         id="svg_77" />
    </g>
    <text
       xml:space="preserve"
       style="font-size:40px;line-height:1.25;font-family:'billion dreams';-inkscape-font-specification:'billion dreams'"
       x="4.8416018"
       y="12.478355"
       id="text2713"><tspan
         sodipodi:role="line"
         id="tspan2711"
         x="4.8416018"
         y="12.478355">GG</tspan></text>
    <g
       aria-label="gg"
       id="text2717"
       style="font-size:32.7268px;line-height:1.25;font-family:'billion dreams';-inkscape-font-specification:'billion dreams';stroke-width:0.818169">
      <path
         d="m 16.537067,13.138632 q 0.431457,-0.207738 0.527336,0.159799 0.11186,0.367537 -0.111859,0.926833 -0.207738,0.543316 -0.703115,0.926833 -2.381002,1.42221 -4.282608,3.020198 -0.415477,0.335578 -0.639195,0.814974 Q 10.496672,20.761036 9.2662209,22.91832 8.0517498,25.059624 6.7254196,26.753492 5.3990894,28.463339 4.232558,28.894796 3.6413023,29.054595 2.60261,28.655098 1.5639176,28.271581 0.95668209,27.408667 0.34944656,26.561733 1.0365815,25.363242 1.9953744,23.877113 3.6413023,22.359024 5.2712503,20.840935 6.7573794,19.626464 8.5311463,18.188275 8.8667238,17.676919 9.1863215,17.021743 9.5059191,16.238729 9.8255168,15.439735 10.065215,14.76858 9.1863215,15.903152 7.9239108,17.277422 6.6615001,18.635712 5.5109486,19.434706 5.0155722,19.706364 4.2645177,19.498625 3.4974834,19.274907 2.9222076,18.763551 2.3469319,18.236215 2.4108514,17.628979 2.9222076,15.247977 4.5201958,12.882954 6.1022042,10.517931 7.9079309,9.1916011 8.9146635,8.5044662 9.6497381,8.7601443 q 0.7350749,0.2396982 1.4541689,0.8469338 0.143819,0.1118592 0.303618,0.2237183 0.0799,-0.095879 0.191759,-0.271658 0.143819,-0.2077384 0.287638,-0.399497 0.143819,-0.2077385 0.239698,-0.2876379 0.383517,-0.271658 0.958793,-0.1597988 0.575276,0.095879 1.006732,0.4154769 0.431457,0.3195977 0.383518,0.7190947 -0.431457,1.9974857 -1.182512,4.2186887 -0.271658,0.846934 -0.463416,1.486129 2.157284,-1.518089 3.707332,-2.412962 z M 2.5227106,26.881331 q 1.0386923,-0.783014 2.0773847,-2.093365 1.0227124,-1.29437 1.8376864,-2.65266 -1.2304509,1.166531 -2.4928616,2.588741 -1.2783906,1.422209 -1.4222095,2.157284 z M 9.8894363,12.11592 q 0.2077387,-0.351558 0.2876377,-0.751055 0.09588,-0.415477 -0.06392,-0.575276 -0.1438193,-0.159798 -0.6551755,0.271658 -1.2943705,1.134572 -2.3969824,2.76452 -1.086632,1.613968 -1.5021089,2.76452 -0.03196,0.287638 0.1438189,0.271658 0.4474367,-0.06392 1.6619078,-1.40623 1.2304509,-1.34231 2.5248214,-3.339795 z"
         style="fill:#a9ff0f;fill-opacity:1;stroke-width:0.818169"
         id="path2719" />
      <path
         d="m 27.738965,13.138632 q 0.431457,-0.207738 0.527336,0.159799 0.111859,0.367537 -0.111859,0.926833 -0.207739,0.543316 -0.703115,0.926833 -2.381002,1.42221 -4.282608,3.020198 -0.415477,0.335578 -0.639196,0.814974 -0.830954,1.773767 -2.061404,3.931051 -1.214472,2.141304 -2.540802,3.835172 -1.32633,1.709847 -2.492861,2.141304 -0.591256,0.159799 -1.629948,-0.239698 -1.038693,-0.383517 -1.645928,-1.246431 -0.607236,-0.846934 0.0799,-2.045425 0.958793,-1.486129 2.604721,-3.004218 1.629948,-1.518089 3.116077,-2.73256 1.773767,-1.438189 2.109344,-1.949545 0.319598,-0.655176 0.639196,-1.43819 0.319597,-0.798994 0.559296,-1.470149 -0.878894,1.134572 -2.141305,2.508842 -1.26241,1.35829 -2.412962,2.157284 -0.495376,0.271658 -1.246431,0.06392 -0.767034,-0.223718 -1.34231,-0.735074 -0.575276,-0.527336 -0.511356,-1.134572 0.511356,-2.381002 2.109344,-4.746025 1.582009,-2.365023 3.387736,-3.6913529 1.006732,-0.6871349 1.741807,-0.4314568 0.735074,0.2396982 1.454169,0.8469338 0.143819,0.1118592 0.303618,0.2237183 0.0799,-0.095879 0.191758,-0.271658 Q 22.945,9.3514 23.088819,9.1596414 q 0.143819,-0.2077385 0.239698,-0.2876379 0.383518,-0.271658 0.958793,-0.1597988 0.575276,0.095879 1.006733,0.4154769 0.431457,0.3195977 0.383517,0.7190947 -0.431457,1.9974857 -1.182511,4.2186887 -0.271658,0.846934 -0.463417,1.486129 2.157284,-1.518089 3.707333,-2.412962 z M 13.724608,26.881331 q 1.038693,-0.783014 2.077385,-2.093365 1.022712,-1.29437 1.837686,-2.65266 -1.230451,1.166531 -2.492861,2.588741 -1.278391,1.422209 -1.42221,2.157284 z M 21.091334,12.11592 q 0.207738,-0.351558 0.287638,-0.751055 0.09588,-0.415477 -0.06392,-0.575276 -0.143819,-0.159798 -0.655175,0.271658 -1.29437,1.134572 -2.396982,2.76452 -1.086632,1.613968 -1.502109,2.76452 -0.03196,0.287638 0.143819,0.271658 0.447436,-0.06392 1.661908,-1.40623 1.23045,-1.34231 2.524821,-3.339795 z"
         style="fill:#a9ff0f;fill-opacity:1;stroke-width:0.818169"
         id="path2721" />
    </g>
  </g>
</svg>
