<?xml version="1.0" encoding="UTF-8" standalone="no"?>
<svg
   xmlns:dc="http://purl.org/dc/elements/1.1/"
   xmlns:cc="http://creativecommons.org/ns#"
   xmlns:rdf="http://www.w3.org/1999/02/22-rdf-syntax-ns#"
   xmlns:svg="http://www.w3.org/2000/svg"
   xmlns="http://www.w3.org/2000/svg"
   xmlns:sodipodi="http://sodipodi.sourceforge.net/DTD/sodipodi-0.dtd"
   xmlns:inkscape="http://www.inkscape.org/namespaces/inkscape"
   inkscape:version="1.0.1 (3bc2e813f5, 2020-09-07)"
   sodipodi:docname="logo.svg"
   id="svg184"
   version="1.1"
   height="40"
   width="85">
  <metadata
     id="metadata188">
    <rdf:RDF>
      <cc:Work
         rdf:about="">
        <dc:format>image/svg+xml</dc:format>
        <dc:type
           rdf:resource="http://purl.org/dc/dcmitype/StillImage" />
        <dc:title />
      </cc:Work>
    </rdf:RDF>
  </metadata>
  <sodipodi:namedview
     pagecolor="#ffffff"
     bordercolor="#666666"
     borderopacity="1"
     objecttolerance="10"
     gridtolerance="10"
     guidetolerance="10"
     inkscape:pageopacity="0"
     inkscape:pageshadow="2"
     inkscape:window-width="1920"
     inkscape:window-height="1017"
     id="namedview186"
     showgrid="false"
     inkscape:zoom="9.5417821"
     inkscape:cx="72.235561"
     inkscape:cy="24.14295"
     inkscape:window-x="-8"
     inkscape:window-y="-8"
     inkscape:window-maximized="1"
     inkscape:current-layer="text356"
     inkscape:document-rotation="0" />
  <mask
     height="39"
     width="117"
     y="1"
     x="0"
     maskUnits="userSpaceOnUse"
     id="mask0">
    <path
       id="svg_1"
       fill="white"
       d="m0,1.45288l116.146,0l0,38.54702l-116.146,0l0,-38.54702z"
       clip-rule="evenodd"
       fill-rule="evenodd" />
  </mask>
  <defs
     id="defs110">
    <filter
       height="200%"
       width="200%"
       y="-50%"
       x="-50%"
       id="svg_79_blur">
      <feGaussianBlur
         stdDeviation="0"
         in="SourceGraphic"
         id="feGaussianBlur107" />
    </filter>
  </defs>
  <g
     id="g115">
    <title
       id="title112">background</title>
    <rect
       fill="none"
       id="canvas_background"
       height="42"
       width="87"
       y="-1"
       x="-1" />
  </g>
  <g
     id="g182">
    <title
       id="title117">Layer 1</title>
    <g
       id="svg_39"
       transform="translate(-0.10480223,0.20960445)">
      <g
         transform="matrix(0.0735746,0,0,0.0735746,25.0909,47.041)"
         id="svg_15">
        <path
           id="svg_16"
           fill="#afb9d2"
           d="m -285.44132,-107.72888 h -17.655 c -4.875,0 -8.828,-3.953 -8.828,-8.828 v -17.655 h 35.31 v 17.655 c 0.001,4.875 -3.952,8.828 -8.827,8.828 z" />
        <path
           id="svg_17"
           fill="#afb9d2"
           d="m -91.23432,-107.72888 h -17.655 c -4.875,0 -8.828,-3.953 -8.828,-8.828 v -17.655 h 35.31 v 17.655 c 0.001,4.875 -3.952,8.828 -8.827,8.828 z" />
      </g>
      <path
         id="svg_18"
         fill="#00d7d7"
         d="M 18.37842,37.81589 H 2.79076 c -0.71743,0 -1.29896,-0.58153 -1.29896,-1.29896 V 2.74362 c 0,-0.71743 0.58153,-1.29896 1.29896,-1.29896 h 15.58766 c 0.71743,0 1.29896,0.58153 1.29896,1.29896 v 33.77331 c 0,0.71743 -0.58153,1.29896 -1.29896,1.29896 z" />
      <rect
         transform="matrix(0.0735746,0,0,0.0735746,25.0909,47.041)"
         id="svg_19"
         fill="#00bebe"
         height="17.655001"
         width="247.172"
         y="-460.83188"
         x="-320.75131" />
      <g
         transform="matrix(0.0735746,0,0,0.0735746,25.0909,47.041)"
         id="svg_20">
        <path
           id="svg_21"
           fill="#e4eaf6"
           d="m -100.06232,-478.48788 h -70.621 c -4.875,0 -8.828,-3.953 -8.828,-8.828 v 0 c 0,-4.875 3.953,-8.828 8.828,-8.828 h 70.621 c 4.875,0 8.828,3.953 8.828,8.828 v 0 c 0,4.876 -3.953,8.828 -8.828,8.828 z" />
        <path
           id="svg_22"
           fill="#e4eaf6"
           d="m -170.68232,-425.52188 h 70.621 c 4.875,0 8.828,3.953 8.828,8.828 v 0 c 0,4.875 -3.953,8.828 -8.828,8.828 h -70.621 c -4.875,0 -8.828,-3.953 -8.828,-8.828 v 0 c 0,-4.876 3.953,-8.828 8.828,-8.828 z" />
      </g>
      <path
         id="svg_23"
         fill="#00bebe"
         d="m 1.4918,36.51693 c 0,0.71735 0.58161,1.29896 1.29896,1.29896 h 15.58766 c 0.71735,0 1.29896,-0.58161 1.29896,-1.29896 V 35.21797 H 1.4918 Z" />
      <g
         transform="matrix(0.0735746,0,0,0.0735746,25.0909,47.041)"
         id="svg_24" />
      <g
         transform="matrix(0.0735746,0,0,0.0735746,25.0909,47.041)"
         id="svg_25" />
      <g
         transform="matrix(0.0735746,0,0,0.0735746,25.0909,47.041)"
         id="svg_26" />
      <g
         transform="matrix(0.0735746,0,0,0.0735746,25.0909,47.041)"
         id="svg_27" />
      <g
         transform="matrix(0.0735746,0,0,0.0735746,25.0909,47.041)"
         id="svg_28" />
      <g
         transform="matrix(0.0735746,0,0,0.0735746,25.0909,47.041)"
         id="svg_29" />
      <g
         transform="matrix(0.0735746,0,0,0.0735746,25.0909,47.041)"
         id="svg_30" />
      <g
         transform="matrix(0.0735746,0,0,0.0735746,25.0909,47.041)"
         id="svg_31" />
      <g
         transform="matrix(0.0735746,0,0,0.0735746,25.0909,47.041)"
         id="svg_32" />
      <g
         transform="matrix(0.0735746,0,0,0.0735746,25.0909,47.041)"
         id="svg_33" />
      <g
         transform="matrix(0.0735746,0,0,0.0735746,25.0909,47.041)"
         id="svg_34" />
      <g
         transform="matrix(0.0735746,0,0,0.0735746,25.0909,47.041)"
         id="svg_35" />
      <g
         transform="matrix(0.0735746,0,0,0.0735746,25.0909,47.041)"
         id="svg_36" />
      <g
         transform="matrix(0.0735746,0,0,0.0735746,25.0909,47.041)"
         id="svg_37" />
      <g
         transform="matrix(0.0735746,0,0,0.0735746,25.0909,47.041)"
         id="svg_38" />
    </g>
    <g
       id="svg_78">
      <g
         transform="matrix(0.0525365, 0, 0, 0.0525365, 15.7107, 18.9447)"
         id="svg_44">
        <path
           id="svg_45"
           fill="#AFB9D2"
           d="m138.09548,383.52291l-17.655,0c-4.875,0 -8.828,-3.953 -8.828,-8.828l0,-17.655l35.31,0l0,17.655c0.001,4.875 -3.952,8.828 -8.827,8.828z" />
        <path
           id="svg_46"
           fill="#AFB9D2"
           d="m455.88848,383.52291l-17.655,0c-4.875,0 -8.828,-3.953 -8.828,-8.828l0,-17.655l35.31,0l0,17.655c0.001,4.875 -3.952,8.828 -8.827,8.828z" />
      </g>
      <path
         id="svg_47"
         fill="#E4EAF6"
         d="m39.66151,38.16615l-17.62326,0c-0.51228,0 -0.92753,-0.41525 -0.92753,-0.92753l0,-24.11609c0,-0.51228 0.41525,-0.92753 0.92753,-0.92753l17.62326,0c0.51228,0 0.92753,0.41525 0.92753,0.92753l0,24.11609c0,0.51228 -0.41525,0.92753 -0.92753,0.92753z" />
      <path
         id="svg_48"
         fill="#D7DEED"
         d="m21.11072,13.12253l0,4.63771l19.47838,0l0,-4.63771c-0.00005,-0.51228 -0.41535,-0.92753 -0.92758,-0.92753l-17.62326,0c-0.51223,0 -0.92753,0.41525 -0.92753,0.92753z" />
      <path
         id="svg_49"
         fill="#AFB9D2"
         d="m28.99482,12.19499l0,2.78265c0,1.02451 0.83055,1.85506 1.85506,1.85506s1.85506,-0.83055 1.85506,-1.85506l0,-2.78265l-3.71013,0z" />
      <circle
         transform="matrix(0.0525365, 0, 0, 0.0525365, 15.7107, 18.9447)"
         id="svg_50"
         fill="#C7CFE2"
         r="132.414"
         cy="136.35091"
         cx="288.16446" />
      <circle
         transform="matrix(0.0525365, 0, 0, 0.0525365, 15.7107, 18.9447)"
         id="svg_51"
         fill="#707487"
         r="17.655"
         cy="-75.51109"
         cx="288.16446" />
      <path
         id="svg_52"
         fill="#FFFFFF"
         d="m34.56006,15.90517c-0.25612,0 -0.46379,-0.20768 -0.46379,-0.46379l0,-0.92753c0,-0.25612 0.20768,-0.46379 0.46379,-0.46379s0.46379,0.20768 0.46379,0.46379l0,0.92753c-0.00005,0.25612 -0.20768,0.46379 -0.46379,0.46379z" />
      <path
         id="svg_53"
         fill="#FFF08C"
         d="m36.41512,15.90517c-0.25612,0 -0.46379,-0.20768 -0.46379,-0.46379l0,-0.92753c0,-0.25612 0.20768,-0.46379 0.46379,-0.46379s0.46379,0.20768 0.46379,0.46379l0,0.92753c0,0.25612 -0.20768,0.46379 -0.46379,0.46379z" />
      <path
         id="svg_54"
         fill="#E4EAF6"
         d="m38.27019,15.90517c-0.25612,0 -0.46379,-0.20768 -0.46379,-0.46379l0,-0.92753c0,-0.25612 0.20768,-0.46379 0.46379,-0.46379c0.25612,0 0.46379,0.20768 0.46379,0.46379l0,0.92753c0,0.25612 -0.20768,0.46379 -0.46379,0.46379z" />
      <circle
         transform="matrix(0.0525365, 0, 0, 0.0525365, 15.7107, 18.9447)"
         id="svg_55"
         fill="#00C8F0"
         r="88.276"
         cy="136.35091"
         cx="288.16446" />
      <path
         id="svg_56"
         fill="#00AFE1"
         d="m30.84988,22.86169c2.32427,0 4.24348,1.71159 4.57997,3.94202c0.03431,-0.22748 0.05774,-0.45859 0.05774,-0.69564c0,-2.56136 -2.07635,-4.63771 -4.63771,-4.63771s-4.63771,2.07635 -4.63771,4.63771c0,0.23704 0.02343,0.46815 0.05774,0.69564c0.3365,-2.23038 2.25571,-3.94202 4.57997,-3.94202z" />
      <path
         id="svg_57"
         fill="#D7DEED"
         d="m34.56006,33.52844l4.63771,0c0.25612,0 0.46379,0.20768 0.46379,0.46379l0,2.78265c0,0.25612 -0.20768,0.46379 -0.46379,0.46379l-4.63771,0c-0.25612,0 -0.46379,-0.20768 -0.46379,-0.46379l0,-2.78265c0,-0.25612 0.20768,-0.46379 0.46379,-0.46379z" />
      <path
         id="svg_58"
         fill="#C7CFE2"
         d="m27.1397,16.83271l-4.63771,0c-0.25612,0 -0.46379,-0.20768 -0.46379,-0.46379l0,-2.7826c0,-0.25612 0.20768,-0.46379 0.46379,-0.46379l4.63771,0c0.25612,0 0.46379,0.20768 0.46379,0.46379l0,2.78265c0,0.25606 -0.20768,0.46374 -0.46379,0.46374z" />
      <path
         id="svg_59"
         fill="#AFB9D2"
         d="m25.74843,15.90517l-1.85506,0c-0.25612,0 -0.46379,0.20768 -0.46379,0.46379l0,0.46379l2.78265,0l0,-0.46379c-0.00005,-0.25617 -0.20768,-0.46379 -0.46379,-0.46379z" />
      <path
         id="svg_60"
         fill="#00EBFF"
         d="m33.16894,27.91612c0.1171,0 0.23416,0.04392 0.32452,0.13244c0.18293,0.17915 0.18614,0.47283 0.00678,0.65581c-0.30755,0.31406 -0.66417,0.56866 -1.06024,0.75658c-0.23032,0.11027 -0.50792,0.01109 -0.61772,-0.22013c-0.10985,-0.23142 -0.0113,-0.50792 0.22013,-0.61772c0.29688,-0.14085 0.56429,-0.33198 0.7953,-0.56771c0.09073,-0.09267 0.21104,-0.13927 0.33124,-0.13927z" />
      <path
         id="svg_61"
         fill="#00DCFF"
         d="m28.06634,27.31668c0.1574,0 0.31065,0.07996 0.39765,0.22438c0.43432,0.72122 1.15896,1.20293 1.98803,1.32156c0.25365,0.03625 0.4298,0.27109 0.39334,0.52468c-0.03625,0.25365 -0.27356,0.42912 -0.52468,0.39334c-1.10621,-0.15808 -2.07246,-0.80008 -2.65104,-1.76087c-0.13223,-0.21944 -0.06142,-0.50451 0.15787,-0.63653c0.07486,-0.04529 0.15729,-0.06656 0.23883,-0.06656z" />
      <path
         id="svg_62"
         fill="#959CB3"
         d="m30.84988,20.54288c-3.07359,0 -5.56524,2.49165 -5.56524,5.56524s2.49165,5.56524 5.56524,5.56524s5.56524,-2.49165 5.56524,-5.56524s-2.49165,-5.56524 -5.56524,-5.56524zm0,10.2029c-2.56136,0 -4.63771,-2.07635 -4.63771,-4.63771s2.07635,-4.63771 4.63771,-4.63771c2.08523,0 3.84877,1.3763 4.43245,3.26992c-0.41336,0.09357 -0.72227,0.46237 -0.72227,0.904l0,0.92753c0,0.44162 0.30891,0.81043 0.72227,0.904c-0.58368,1.89368 -2.34723,3.26998 -4.43245,3.26998z" />
      <g
         transform="matrix(0.0525365, 0, 0, 0.0525365, 15.7107, 18.9447)"
         id="svg_63" />
      <g
         transform="matrix(0.0525365, 0, 0, 0.0525365, 15.7107, 18.9447)"
         id="svg_64" />
      <g
         transform="matrix(0.0525365, 0, 0, 0.0525365, 15.7107, 18.9447)"
         id="svg_65" />
      <g
         transform="matrix(0.0525365, 0, 0, 0.0525365, 15.7107, 18.9447)"
         id="svg_66" />
      <g
         transform="matrix(0.0525365, 0, 0, 0.0525365, 15.7107, 18.9447)"
         id="svg_67" />
      <g
         transform="matrix(0.0525365, 0, 0, 0.0525365, 15.7107, 18.9447)"
         id="svg_68" />
      <g
         transform="matrix(0.0525365, 0, 0, 0.0525365, 15.7107, 18.9447)"
         id="svg_69" />
      <g
         transform="matrix(0.0525365, 0, 0, 0.0525365, 15.7107, 18.9447)"
         id="svg_70" />
      <g
         transform="matrix(0.0525365, 0, 0, 0.0525365, 15.7107, 18.9447)"
         id="svg_71" />
      <g
         transform="matrix(0.0525365, 0, 0, 0.0525365, 15.7107, 18.9447)"
         id="svg_72" />
      <g
         transform="matrix(0.0525365, 0, 0, 0.0525365, 15.7107, 18.9447)"
         id="svg_73" />
      <g
         transform="matrix(0.0525365, 0, 0, 0.0525365, 15.7107, 18.9447)"
         id="svg_74" />
      <g
         transform="matrix(0.0525365, 0, 0, 0.0525365, 15.7107, 18.9447)"
         id="svg_75" />
      <g
         transform="matrix(0.0525365, 0, 0, 0.0525365, 15.7107, 18.9447)"
         id="svg_76" />
      <g
         transform="matrix(0.0525365, 0, 0, 0.0525365, 15.7107, 18.9447)"
         id="svg_77" />
    </g>
    <text
       transform="scale(0.94947843,1.0532098)"
       xml:space="preserve"
       text-anchor="start"
       font-family="Helvetica, Arial, sans-serif"
       font-size="6.95045px"
       id="svg_80"
       y="35.310829"
       x="36.694054"
       stroke-opacity="null"
       stroke-width="0"
       stroke="null"
       fill="#0d4545"><tspan
         style="font-style:normal;font-variant:normal;font-weight:bold;font-stretch:normal;font-family:Helvetica, Arial, sans-serif;-inkscape-font-specification:'Helvetica, Arial, sans-serif Bold'"
         id="tspan192">APPLIANCES</tspan></text>
    <g
       aria-label="goget"
       transform="matrix(1.7979631,0,0,1.6930465,-24.107907,2.6538063)"
       id="text356"
       style="font-weight:bold;font-size:19.7811px;font-family:Euphoria, sans-serif;text-anchor:start;fill:#00ff00;stroke-width:0;filter:url(#svg_79_blur)">
      <path
         d="m 34.264266,8.2143908 q 0.260786,-0.1255636 0.318738,0.096587 0.06761,0.222151 -0.06761,0.5602069 -0.125564,0.3283972 -0.424985,0.560207 -1.439152,0.8596283 -2.588542,1.8255023 -0.251127,0.202833 -0.38635,0.492596 -0.502254,1.07212 -1.245977,2.37605 -0.734064,1.294271 -1.53574,2.318097 -0.801675,1.033485 -1.506763,1.294271 -0.357373,0.09659 -0.985192,-0.144881 -0.627818,-0.231809 -0.99485,-0.753381 -0.367032,-0.511914 0.04829,-1.236319 0.579524,-0.898263 1.574375,-1.815843 0.985191,-0.917581 1.883454,-1.651645 1.07212,-0.869286 1.274953,-1.178366 0.193175,-0.396008 0.38635,-0.869287 0.193175,-0.482937 0.338056,-0.8886041 -0.531231,0.6857705 -1.294271,1.5164221 -0.763041,0.820993 -1.45847,1.30393 -0.299421,0.164199 -0.753382,0.03864 -0.463619,-0.135222 -0.811334,-0.444302 -0.347714,-0.318738 -0.309079,-0.68577 0.309079,-1.4391529 1.274953,-2.8686464 0.956215,-1.4294935 2.047653,-2.2311689 0.608501,-0.4153258 1.052803,-0.260786 0.444302,0.1448811 0.878945,0.5119132 0.08693,0.067611 0.183516,0.1352224 0.04829,-0.057952 0.115905,-0.1641986 0.08693,-0.1255636 0.173857,-0.2414685 0.08693,-0.1255636 0.144881,-0.1738573 0.23181,-0.1641986 0.579525,-0.096587 0.347714,0.057952 0.6085,0.2511272 0.260786,0.1931748 0.23181,0.4346433 -0.260786,1.2073425 -0.714747,2.5499073 -0.164198,0.5119133 -0.280103,0.8982629 1.30393,-0.9175803 2.240828,-1.4584698 z m -8.470715,8.3065162 q 0.627818,-0.473278 1.255636,-1.265295 0.618159,-0.782358 1.110755,-1.603351 -0.743723,0.705088 -1.506763,1.564716 -0.7727,0.859628 -0.859628,1.30393 z M 30.24623,7.5962315 q 0.125563,-0.2124923 0.173857,-0.4539608 0.05795,-0.2511272 -0.03863,-0.3477146 -0.08693,-0.096587 -0.396008,0.1641985 -0.782358,0.6857706 -1.448811,1.670962 -0.656794,0.9755328 -0.907922,1.6709624 -0.01932,0.173857 0.08693,0.164198 0.270445,-0.03863 1.004509,-0.8499689 0.743723,-0.8113341 1.526081,-2.0186766 z"
         style="font-style:normal;font-variant:normal;font-weight:normal;font-stretch:normal;font-size:19.7811px;font-family:'Billion Dreams';-inkscape-font-specification:'Billion Dreams'"
         id="path1223" />
      <path
         d="m 39.335104,10.416584 q 0.193175,-0.01932 0.251127,0.183516 0.05795,0.193174 0,0.405667 -0.04829,0.202833 -0.183516,0.231809 -0.415325,0.05795 -0.811334,0.02898 -0.396008,-0.02898 -0.888604,-0.193175 -0.03863,0.07727 -0.08693,0.173857 -0.212492,0.492596 -0.637476,1.168708 -0.415326,0.676111 -1.043144,1.052802 -0.434644,0.202834 -1.081779,0.04829 -0.637477,-0.15454 -1.188025,-0.540889 -0.550548,-0.396009 -0.714747,-0.898263 -0.164198,-0.695429 0.02898,-1.506764 0.193175,-0.8209925 0.560207,-1.5260805 0.357374,-0.7050881 0.724406,-1.0528027 0.125563,-0.1255636 0.280103,-0.2318097 0.06761,-0.048294 0.135223,-0.096587 -0.07727,-0.4056671 -0.08693,-0.8113342 0,-0.4056671 0.183516,-0.7726992 0.270445,-0.4153258 1.052803,-0.4153258 0.792016,-0.00966 1.545398,0.4636195 0.753382,0.4732783 0.91758,1.4777872 0.07727,0.6857705 -0.01932,1.3425649 -0.08693,0.6471355 -0.260786,1.3232465 0.193175,0.106247 0.560207,0.164199 0.367032,0.04829 0.76304,-0.01932 z m -4.790735,2.153899 q 0.714747,-0.424985 1.081779,-1.004509 0.376691,-0.579525 0.627818,-1.245978 -0.666453,-0.4346432 -1.014168,-1.1493899 -0.135222,0.1545398 -0.357373,0.8016754 -0.212492,0.6374765 -0.347715,1.3811995 -0.125563,0.743723 0.0097,1.217002 z m 1.999359,-3.3322657 q 0.135223,-0.3670322 0.144881,-0.8692866 0.01932,-0.5119132 -0.04829,-0.9465565 -0.06761,-0.4443021 -0.183516,-0.6181594 -0.569866,0.8403104 0.08693,2.4340025 z"
         style="font-style:normal;font-variant:normal;font-weight:normal;font-stretch:normal;font-size:19.7811px;font-family:'Billion Dreams';-inkscape-font-specification:'Billion Dreams'"
         id="path1225" />
      <path
         d="m 46.80131,8.2143908 q 0.260786,-0.1255636 0.318739,0.096587 0.06761,0.222151 -0.06761,0.5602069 -0.125563,0.3283972 -0.424984,0.560207 -1.439152,0.8596283 -2.588542,1.8255023 -0.251128,0.202833 -0.38635,0.492596 -0.502255,1.07212 -1.245977,2.37605 -0.734065,1.294271 -1.53574,2.318097 -0.801676,1.033485 -1.506764,1.294271 -0.357373,0.09659 -0.985191,-0.144881 -0.627818,-0.231809 -0.99485,-0.753381 -0.367032,-0.511914 0.04829,-1.236319 0.579525,-0.898263 1.574375,-1.815843 0.985192,-0.917581 1.883454,-1.651645 1.07212,-0.869286 1.274954,-1.178366 0.193175,-0.396008 0.38635,-0.869287 0.193174,-0.482937 0.338056,-0.8886041 -0.531231,0.6857705 -1.294272,1.5164221 -0.76304,0.820993 -1.458469,1.30393 -0.299421,0.164199 -0.753382,0.03864 -0.46362,-0.135222 -0.811334,-0.444302 -0.347715,-0.318738 -0.30908,-0.68577 0.30908,-1.4391529 1.274954,-2.8686464 0.956215,-1.4294935 2.047653,-2.2311689 0.6085,-0.4153258 1.052802,-0.260786 0.444302,0.1448811 0.878946,0.5119132 0.08693,0.067611 0.183516,0.1352224 0.04829,-0.057952 0.115905,-0.1641986 0.08693,-0.1255636 0.173857,-0.2414685 0.08693,-0.1255636 0.144881,-0.1738573 0.23181,-0.1641986 0.579524,-0.096587 0.347715,0.057952 0.608501,0.2511272 0.260786,0.1931748 0.23181,0.4346433 -0.260786,1.2073425 -0.714747,2.5499073 -0.164199,0.5119133 -0.280103,0.8982629 1.303929,-0.9175803 2.240827,-1.4584698 z m -8.470715,8.3065162 q 0.627818,-0.473278 1.255636,-1.265295 0.61816,-0.782358 1.110756,-1.603351 -0.743723,0.705088 -1.506764,1.564716 -0.772699,0.859628 -0.859628,1.30393 z m 4.452679,-8.9246755 q 0.125564,-0.2124923 0.173858,-0.4539608 0.05795,-0.2511272 -0.03863,-0.3477146 -0.08693,-0.096587 -0.396009,0.1641985 -0.782358,0.6857706 -1.448811,1.670962 -0.656794,0.9755328 -0.907921,1.6709624 -0.01932,0.173857 0.08693,0.164198 0.270444,-0.03863 1.004508,-0.8499689 0.743723,-0.8113341 1.526081,-2.0186766 z"
         style="font-style:normal;font-variant:normal;font-weight:normal;font-stretch:normal;font-size:19.7811px;font-family:'Billion Dreams';-inkscape-font-specification:'Billion Dreams'"
         id="path1227" />
      <path
         d="m 55.812915,4.23499 v 0 q -1.294272,2.1249228 -2.163558,4.6844888 -0.869287,2.5595662 -0.975533,4.4623382 -0.106246,1.893113 0.907922,2.047653 -0.280104,0.270444 -0.830652,0.183516 -0.540889,-0.07727 -1.043144,-0.589184 -0.502254,-0.502254 -0.676112,-1.497104 -0.08693,-0.666453 0.08693,-1.661303 -0.898263,1.574374 -1.651645,1.941406 -0.965874,0.280104 -2.095946,-0.347714 Q 46.250762,12.831268 46.076905,11.67222 45.989976,9.5859319 46.87858,7.7894063 47.776843,5.9832219 48.819987,5.2201815 48.501248,4.8338319 48.33705,4.418506 48.18251,4.0031802 48.404661,3.8679579 51.215354,2.7378853 54.62489,2.786179 q 0.792016,-1.410176 1.390858,-1.93174798 0.222151,-0.16419858 0.482937,-0.0289762 0.270445,0.12556362 0.54089,0.34771458 0.04829,0.028976 0.09659,0.067611 0.318738,0.2414685 0.424984,0.4732783 0.115905,0.2318097 -0.04829,0.3863496 -0.38635,0.3477146 -0.772699,0.8113341 1.342564,0.1641986 2.06697,0.5119132 0.492596,0.2801035 0.743723,0.9079216 0.251127,0.6181593 0.241468,1.14939 -0.0097,0.521572 -0.309079,0.521572 Q 59.560506,5.3264276 58.498044,4.8531493 57.445242,4.3798711 55.812915,4.23499 Z m -5.766268,2.2698039 v 0 q -0.260786,0.2028335 -0.666453,0.7533817 -0.405667,0.5505482 -0.743723,1.0914376 -0.328397,0.5312307 -0.338056,0.6954293 0.453961,0.048294 0.830652,-0.3960084 0.386349,-0.444302 0.627818,-1.0624614 0.241468,-0.6181593 0.289762,-1.0817788 z m -1.526081,5.9980771 v 0 q 0.637477,0.270445 1.419835,-0.743723 0.792016,-1.014167 1.526081,-2.5016133 0.743723,-1.4971046 1.245977,-2.6561534 0.183516,-0.3960084 0.30908,-0.6857706 0.396008,-0.8596278 0.84031,-1.7192557 -2.047653,0.1062462 -3.60271,0.9079216 0.260786,0.1352223 0.579525,0.3283971 0.144881,0.096587 0.309079,0.1931748 0.453961,0.2704447 0.434643,0.705088 -0.01932,0.3380559 -0.309079,1.1107551 -0.280104,0.7726992 -0.801676,1.5260809 -0.511913,0.743723 -1.22666,1.004509 -0.367032,0.1062465 -0.666453,0.067611 -0.289762,-0.048294 -0.618159,-0.1931766 -0.30908,1.0624626 -0.09659,1.7482336 0.212492,0.676112 0.656794,0.907921 z"
         style="font-style:normal;font-variant:normal;font-weight:normal;font-stretch:normal;font-size:19.7811px;font-family:'Billion Dreams';-inkscape-font-specification:'Billion Dreams'"
         id="path1229" />
    </g>
  </g>
</svg>
